<?xml version="1.0" standalone="no"?>
<!DOCTYPE svg PUBLIC "-//W3C//DTD SVG 20010904//EN"
 "http://www.w3.org/TR/2001/REC-SVG-20010904/DTD/svg10.dtd">
<svg version="1.0" xmlns="http://www.w3.org/2000/svg"
 width="980.000000pt" height="854.000000pt" viewBox="0 0 980.000000 854.000000"
 preserveAspectRatio="xMidYMid meet">

<g transform="translate(0.000000,854.000000) scale(0.100000,-0.100000)"
fill="#000000" stroke="none">
<path d="M2475 8523 c-47 -24 -83 -63 -96 -101 -11 -34 -8 -42 55 -168 37 -72
182 -333 322 -579 141 -245 254 -449 251 -451 -3 -3 -160 15 -349 41 -190 25
-382 46 -427 47 -92 1 -116 -10 -159 -73 -40 -58 -14 -155 50 -186 51 -25 152
-44 558 -102 228 -33 444 -66 480 -74 l64 -13 50 -84 c128 -221 246 -435 246
-447 0 -9 -12 -11 -42 -8 -248 30 -730 77 -833 82 -164 7 -194 -3 -220 -71
-25 -64 -14 -129 28 -171 41 -41 46 -42 652 -110 630 -72 615 -69 640 -101 11
-14 89 -145 173 -292 l153 -267 -28 -3 c-15 -1 -199 16 -408 38 -439 47 -627
58 -665 38 -41 -22 -70 -75 -70 -128 0 -54 15 -77 310 -485 238 -329 290 -406
284 -416 -3 -5 -155 -9 -337 -9 l-332 0 -270 368 c-423 577 -489 652 -562 652
-65 0 -143 -83 -143 -151 0 -46 55 -130 368 -563 111 -153 202 -284 202 -291
0 -19 -156 -25 -415 -17 l-219 7 -73 95 c-371 480 -479 616 -548 687 -75 77
-83 83 -121 83 -84 0 -149 -74 -141 -162 3 -36 16 -66 52 -120 43 -65 322
-433 413 -545 l34 -43 -229 0 c-126 0 -426 -3 -666 -7 l-436 -6 -29 -41 c-56
-78 -54 -126 8 -204 l39 -49 646 -5 c355 -3 648 -8 652 -11 7 -7 -38 -70 -251
-346 -240 -313 -262 -358 -220 -447 35 -74 143 -99 204 -47 35 29 297 353 534
661 l149 192 318 0 c176 0 319 -3 319 -7 0 -5 -97 -141 -216 -303 -283 -389
-374 -524 -374 -558 0 -81 47 -145 115 -158 92 -17 139 35 584 646 134 184
251 343 260 352 14 15 56 18 364 24 191 4 347 4 347 0 0 -4 -102 -148 -227
-319 -263 -360 -403 -564 -403 -587 0 -43 34 -113 64 -132 28 -18 44 -19 176
-15 80 3 318 24 529 47 211 22 390 40 398 38 10 -2 -38 -94 -154 -298 l-168
-295 -550 -61 c-709 -79 -705 -78 -749 -137 -29 -39 -29 -125 0 -163 41 -55
67 -67 145 -66 57 1 708 64 897 87 41 5 43 4 36 -18 -9 -30 -175 -332 -240
-438 -53 -86 -55 -88 -106 -98 -82 -18 -274 -47 -563 -86 -525 -71 -544 -79
-533 -226 4 -54 8 -66 36 -90 31 -28 37 -29 130 -29 53 0 183 12 287 25 372
49 464 59 471 53 8 -8 -29 -76 -296 -543 -116 -203 -238 -424 -272 -491 -57
-114 -60 -123 -49 -156 13 -40 64 -92 104 -107 101 -38 132 0 484 604 115 198
236 400 268 450 l58 90 24 -55 c14 -30 49 -116 80 -190 155 -380 217 -513 253
-545 16 -15 36 -20 74 -20 89 1 156 59 156 135 0 41 -93 289 -261 695 -72 176
-132 325 -132 331 0 11 201 361 269 467 25 37 48 66 53 63 11 -7 60 -110 188
-396 150 -335 236 -503 268 -524 15 -10 41 -20 58 -23 62 -10 186 100 171 151
-14 48 -183 446 -334 787 l-162 367 137 237 c75 131 152 262 172 293 32 51 37
54 48 38 7 -9 86 -182 176 -384 229 -518 249 -556 309 -587 52 -27 119 -16
158 25 34 36 76 124 262 542 99 221 184 406 189 411 12 12 42 -35 217 -338
l136 -237 -67 -152 c-173 -388 -331 -753 -381 -878 -52 -130 -54 -139 -40
-165 18 -36 62 -76 105 -98 42 -21 89 -14 124 19 32 30 115 194 256 509 133
294 181 396 192 402 11 8 51 -53 188 -289 74 -129 121 -220 121 -237 0 -38
-43 -157 -175 -484 -149 -368 -205 -520 -205 -555 0 -60 105 -139 167 -124 66
16 82 32 137 142 29 59 101 220 160 358 58 138 113 259 120 269 13 18 18 12
71 -69 31 -48 142 -235 247 -414 245 -419 312 -526 369 -584 48 -51 72 -58
126 -37 40 15 91 67 104 106 9 29 7 41 -19 97 -34 73 -160 303 -302 551 -183
319 -290 521 -290 544 0 7 14 9 38 6 617 -82 744 -96 788 -83 101 28 142 136
82 221 -40 56 -85 67 -523 127 -407 55 -608 89 -622 103 -28 30 -292 501 -293
524 0 9 13 11 43 8 185 -22 837 -86 894 -87 78 -3 105 9 147 65 28 38 28 125
0 164 -42 57 -62 61 -784 141 l-515 58 -168 294 c-137 241 -165 296 -150 298
10 1 187 -16 393 -39 448 -49 651 -59 697 -36 37 20 63 71 63 127 0 50 -45
119 -393 597 -125 172 -227 315 -227 319 0 4 156 4 348 0 307 -6 349 -9 363
-24 9 -9 108 -143 219 -297 488 -672 533 -721 629 -695 20 5 47 20 59 33 26
28 52 88 52 122 0 31 -82 153 -364 540 -120 165 -221 306 -223 313 -4 9 64 12
320 12 l325 0 178 -232 c237 -308 398 -509 466 -583 52 -56 59 -60 99 -59 121
2 183 108 128 217 -28 54 -83 131 -297 410 -96 126 -172 230 -171 232 2 1 300
6 661 10 l657 8 30 42 c57 79 54 141 -11 211 l-41 44 -658 0 c-363 0 -659 2
-659 5 0 3 55 76 123 163 314 402 377 493 384 554 13 115 -88 188 -203 148
-31 -11 -163 -172 -504 -617 l-193 -253 -324 0 c-257 0 -323 3 -317 13 5 6 65
89 134 182 365 493 460 634 460 682 0 94 -101 173 -193 149 -32 -8 -102 -96
-469 -586 -162 -217 -305 -404 -317 -415 -21 -18 -37 -19 -354 -17 -182 2
-332 4 -333 5 -1 1 90 128 203 282 113 154 252 347 309 429 96 138 104 152
104 196 0 53 -29 106 -70 128 -38 20 -226 9 -662 -38 -208 -22 -392 -40 -408
-40 l-31 0 38 68 c99 179 270 473 288 497 24 32 3 28 600 95 500 56 623 74
664 95 63 32 87 121 53 197 -28 64 -59 73 -227 65 -103 -5 -589 -52 -832 -82
-24 -2 -43 -1 -43 3 0 23 317 552 334 558 6 2 180 26 386 54 635 85 693 98
724 159 23 43 20 119 -4 159 -33 54 -67 62 -216 51 -133 -9 -501 -53 -588 -70
-60 -11 -106 -12 -106 -1 0 5 64 120 142 258 328 579 382 674 434 779 45 89
54 116 48 139 -10 42 -73 102 -121 116 -37 11 -45 11 -75 -7 -65 -38 -107
-103 -522 -819 -87 -149 -167 -283 -179 -298 l-22 -27 -69 173 c-103 258 -211
503 -248 565 -18 31 -46 64 -63 75 -76 48 -205 -28 -205 -121 0 -55 80 -270
278 -748 l122 -292 -146 -248 c-80 -136 -153 -259 -164 -273 l-18 -24 -37 79
c-20 44 -82 181 -137 305 -129 290 -234 509 -256 533 -51 56 -136 59 -196 6
-52 -45 -61 -76 -41 -145 23 -81 106 -279 305 -728 149 -338 170 -392 161
-413 -11 -23 -240 -422 -297 -515 -16 -27 -33 -48 -37 -48 -10 0 -64 116 -246
526 -157 356 -190 417 -241 452 -42 28 -106 26 -148 -5 -44 -33 -79 -102 -257
-502 -95 -212 -183 -408 -197 -435 l-25 -48 -70 118 c-116 196 -253 433 -264
457 -9 20 15 81 161 412 273 619 327 756 316 800 -10 41 -64 94 -108 105 -48
13 -88 6 -124 -23 -30 -24 -116 -195 -267 -537 -175 -395 -176 -398 -194 -375
-36 48 -199 330 -251 433 l-56 113 99 242 c178 438 287 720 292 756 4 27 -1
45 -19 70 -37 55 -71 75 -128 75 -94 0 -114 -29 -261 -374 -114 -268 -180
-410 -190 -410 -8 0 -158 249 -419 695 -238 408 -293 467 -385 418z m2482
-2630 c67 -144 303 -679 303 -688 0 -21 -348 -605 -361 -605 -4 0 -57 82 -117
183 -198 333 -244 417 -239 435 5 17 269 612 322 725 14 31 30 57 34 57 5 0
31 -48 58 -107z m-1187 -788 c374 -41 489 -59 511 -83 19 -19 149 -242 259
-440 53 -98 70 -136 62 -144 -8 -8 -121 -13 -354 -15 l-343 -4 -99 138 c-55
76 -171 236 -258 356 -87 121 -156 223 -153 228 3 4 18 6 33 4 15 -3 169 -21
342 -40z m2634 36 c6 -8 -122 -189 -381 -541 l-129 -175 -363 -3 c-321 -2
-363 0 -357 13 10 26 287 497 327 556 l38 57 78 11 c132 18 715 87 760 90 12
0 24 -3 27 -8z m-1774 -1027 c0 -8 -329 -577 -349 -603 -14 -17 -40 -24 -176
-41 -278 -34 -645 -71 -680 -68 l-34 3 126 175 c69 96 186 257 260 358 l135
182 359 0 c197 0 359 -3 359 -6z m1447 -251 c220 -300 312 -430 320 -449 4
-11 -7 -14 -46 -14 -127 0 -803 91 -827 111 -23 19 -344 568 -344 588 0 11
104 15 502 19 l207 2 188 -257z m-1085 -65 c109 -180 268 -458 268 -467 0 -4
-66 -156 -146 -337 -206 -464 -206 -464 -214 -464 -8 0 2 -22 -196 424 -90
203 -164 373 -164 377 0 19 349 609 360 609 3 0 45 -64 92 -142z"/>
</g>
</svg>
